<svg xmlns="http://www.w3.org/2000/svg" xmlns:xlink="http://www.w3.org/1999/xlink" xmlns:lucid="lucid" width="588.88" height="734"><g transform="translate(-362.55 -20)" lucid:page-tab-id="0_0"><path d="M0 0h1870.87v1322.84H0z" fill="#fff"/><path d="M450 200c-27.6 0-50 22.4-50 50 0 27.7 22.4 50 50 50 27.7 0 50-22.4 50-50 0-27.7-22.3-50-50-50zm13.2 93.4V285c0-3.4-1.9-6.3-4.5-8.2h.5c4.8-.5 8.9-2 8.9-2s6.1-1.9 9.5-5.8c3.5-4.3 4.5-10.3 4.5-10.3s1-6.6 0-11.9c-1-4.9-5-8.6-5-8.6s1.3-3.5 1.1-6.9c0-3.4-1.6-6.8-1.6-6.8s-2.9-.3-6.1 1c-3.7 1.6-7.9 4.5-7.9 4.5s-2.9-1-6.3-1.3c-3.1-.6-6.8-.6-6.8-.6s-3.7 0-6.9.6c-3.4.5-6.3 1.3-6.3 1.3s-4.2-2.9-7.9-4.5c-3.1-1.3-6-1-6-1s-1.6 3.4-1.6 6.8c0 3.5 1 6.9 1 6.9s-3.6 3.4-4.9 8.6c-1.4 5.3 0 11.9 0 11.9s.7 6 4.4 10.3c3.5 3.9 9.5 5.8 9.5 5.8s4.2 1.5 8.9 2h.8c-1.8 1.9-3.7 4.8-3.7 8.2v8.4c-18.6-5.5-32.1-22.9-32.1-43.4 0-25 20.3-45.2 45.3-45.2 25 0 45.6 20.2 45.6 45.2 0 20.5-13.7 37.9-32.4 43.4z" stroke="#000" stroke-opacity="0" fill="#0078d7"/><use xlink:href="#a" transform="matrix(1,0,0,1,370,309) translate(19.074999999999996 14.4)"/><use xlink:href="#b" transform="matrix(1,0,0,1,370,309) translate(126.975 14.4)"/><use xlink:href="#c" transform="matrix(1,0,0,1,370,309) translate(13.549999999999997 36)"/><use xlink:href="#d" transform="matrix(1,0,0,1,370,309) translate(63.5 36)"/><use xlink:href="#e" transform="matrix(1,0,0,1,370,309) translate(107.5 36)"/><use xlink:href="#f" transform="matrix(1,0,0,1,370,309) translate(132.5 36)"/><use xlink:href="#g" transform="matrix(1,0,0,1,370,309) translate(25.599999999999994 57.6)"/><use xlink:href="#h" transform="matrix(1,0,0,1,370,309) translate(114.4 57.6)"/><use xlink:href="#i" transform="matrix(1,0,0,1,370,309) translate(46 79.20000000000002)"/><path d="M650 200c-27.6 0-50 22.4-50 50 0 27.7 22.4 50 50 50 27.7 0 50-22.4 50-50 0-27.7-22.3-50-50-50zm13.2 93.4V285c0-3.4-1.9-6.3-4.5-8.2h.5c4.8-.5 8.9-2 8.9-2s6.1-1.9 9.5-5.8c3.5-4.3 4.5-10.3 4.5-10.3s1-6.6 0-11.9c-1-4.9-5-8.6-5-8.6s1.3-3.5 1.1-6.9c0-3.4-1.6-6.8-1.6-6.8s-2.9-.3-6.1 1c-3.7 1.6-7.9 4.5-7.9 4.5s-2.9-1-6.3-1.3c-3.1-.6-6.8-.6-6.8-.6s-3.7 0-6.9.6c-3.4.5-6.3 1.3-6.3 1.3s-4.2-2.9-7.9-4.5c-3.1-1.3-6-1-6-1s-1.6 3.4-1.6 6.8c0 3.5 1 6.9 1 6.9s-3.6 3.4-4.9 8.6c-1.4 5.3 0 11.9 0 11.9s.7 6 4.4 10.3c3.5 3.9 9.5 5.8 9.5 5.8s4.2 1.5 8.9 2h.8c-1.8 1.9-3.7 4.8-3.7 8.2v8.4c-18.6-5.5-32.1-22.9-32.1-43.4 0-25 20.3-45.2 45.3-45.2 25 0 45.6 20.2 45.6 45.2 0 20.5-13.7 37.9-32.4 43.4z" stroke="#000" stroke-opacity="0" fill="#0078d7"/><use xlink:href="#j" transform="matrix(1,0,0,1,570,309) translate(49.2 14.4)"/><use xlink:href="#k" transform="matrix(1,0,0,1,570,309) translate(100.80000000000001 14.4)"/><use xlink:href="#l" transform="matrix(1,0,0,1,570,309) translate(2.174999999999983 36)"/><use xlink:href="#m" transform="matrix(1,0,0,1,570,309) translate(79.975 36)"/><use xlink:href="#n" transform="matrix(1,0,0,1,570,309) translate(98.925 36)"/><use xlink:href="#o" transform="matrix(1,0,0,1,570,309) translate(17.17499999999999 57.6)"/><use xlink:href="#p" transform="matrix(1,0,0,1,570,309) translate(62.074999999999996 57.6)"/><use xlink:href="#q" transform="matrix(1,0,0,1,570,309) translate(71.025 57.6)"/><use xlink:href="#b" transform="matrix(1,0,0,1,570,309) translate(128.875 57.6)"/><use xlink:href="#r" transform="matrix(1,0,0,1,570,309) translate(3.0999999999999943 79.20000000000002)"/><use xlink:href="#s" transform="matrix(1,0,0,1,570,309) translate(46 79.20000000000002)"/><use xlink:href="#t" transform="matrix(1,0,0,1,570,309) translate(71 79.20000000000002)"/><use xlink:href="#p" transform="matrix(1,0,0,1,570,309) translate(36.1 100.80000000000001)"/><use xlink:href="#u" transform="matrix(1,0,0,1,570,309) translate(45.05 100.80000000000001)"/><path d="M500.96 249.2h80.57" stroke="#5e5e5e" stroke-width="2" fill="none"/><path d="M501 250.2h-1v-.2l-.1-1.8h1.1z" stroke="#5e5e5e" stroke-width=".05" fill="#5e5e5e"/><path d="M596.8 249.2l-14.27 4.64v-9.28z" stroke="#5e5e5e" stroke-width="2" fill="#5e5e5e"/><path d="M850 200c-27.6 0-50 22.4-50 50 0 27.7 22.4 50 50 50 27.7 0 50-22.4 50-50 0-27.7-22.3-50-50-50zm13.2 93.4V285c0-3.4-1.9-6.3-4.5-8.2h.5c4.8-.5 8.9-2 8.9-2s6.1-1.9 9.5-5.8c3.5-4.3 4.5-10.3 4.5-10.3s1-6.6 0-11.9c-1-4.9-5-8.6-5-8.6s1.3-3.5 1.1-6.9c0-3.4-1.6-6.8-1.6-6.8s-2.9-.3-6.1 1c-3.7 1.6-7.9 4.5-7.9 4.5s-2.9-1-6.3-1.3c-3.1-.6-6.8-.6-6.8-.6s-3.7 0-6.9.6c-3.4.5-6.3 1.3-6.3 1.3s-4.2-2.9-7.9-4.5c-3.1-1.3-6-1-6-1s-1.6 3.4-1.6 6.8c0 3.5 1 6.9 1 6.9s-3.6 3.4-4.9 8.6c-1.4 5.3 0 11.9 0 11.9s.7 6 4.4 10.3c3.5 3.9 9.5 5.8 9.5 5.8s4.2 1.5 8.9 2h.8c-1.8 1.9-3.7 4.8-3.7 8.2v8.4c-18.6-5.5-32.1-22.9-32.1-43.4 0-25 20.3-45.2 45.3-45.2 25 0 45.6 20.2 45.6 45.2 0 20.5-13.7 37.9-32.4 43.4z" stroke="#000" stroke-opacity="0" fill="#0078d7"/><use xlink:href="#j" transform="matrix(1,0,0,1,770,309) translate(49.2 14.4)"/><use xlink:href="#v" transform="matrix(1,0,0,1,770,309) translate(100.80000000000001 14.4)"/><use xlink:href="#w" transform="matrix(1,0,0,1,770,309) translate(29.599999999999994 36)"/><use xlink:href="#x" transform="matrix(1,0,0,1,770,309) translate(116.45 36)"/><use xlink:href="#y" transform="matrix(1,0,0,1,770,309) translate(0.5749999999999886 57.6)"/><use xlink:href="#s" transform="matrix(1,0,0,1,770,309) translate(66.425 57.6)"/><use xlink:href="#z" transform="matrix(1,0,0,1,770,309) translate(91.425 57.6)"/><use xlink:href="#e" transform="matrix(1,0,0,1,770,309) translate(20.575000000000003 79.20000000000002)"/><use xlink:href="#m" transform="matrix(1,0,0,1,770,309) translate(45.575 79.20000000000002)"/><use xlink:href="#A" transform="matrix(1,0,0,1,770,309) translate(64.525 79.20000000000002)"/><use xlink:href="#h" transform="matrix(1,0,0,1,770,309) translate(119.425 79.20000000000002)"/><use xlink:href="#B" transform="matrix(1,0,0,1,770,309) translate(8.299999999999997 100.80000000000001)"/><use xlink:href="#C" transform="matrix(1,0,0,1,770,309) translate(72.3 100.80000000000001)"/><use xlink:href="#D" transform="matrix(1,0,0,1,770,309) translate(106.3 100.80000000000001)"/><use xlink:href="#E" transform="matrix(1,0,0,1,770,309) translate(55.55 122.4)"/><use xlink:href="#F" transform="matrix(1,0,0,1,770,309) translate(25.374999999999993 144)"/><path d="M700.96 249.2h80.57" stroke="#5e5e5e" stroke-width="2" fill="none"/><path d="M701 250.2h-1v-.2l-.1-1.8h1.1z" stroke="#5e5e5e" stroke-width=".05" fill="#5e5e5e"/><path d="M796.8 249.2l-14.27 4.64v-9.28z" stroke="#5e5e5e" stroke-width="2" fill="#5e5e5e"/><path d="M450 500c-27.6 0-50 22.4-50 50 0 27.7 22.4 50 50 50 27.7 0 50-22.4 50-50 0-27.7-22.3-50-50-50zm13.2 93.4V585c0-3.4-1.9-6.3-4.5-8.2h.5c4.8-.5 8.9-2 8.9-2s6.1-1.9 9.5-5.8c3.5-4.3 4.5-10.3 4.5-10.3s1-6.6 0-11.9c-1-4.9-5-8.6-5-8.6s1.3-3.5 1.1-6.9c0-3.4-1.6-6.8-1.6-6.8s-2.9-.3-6.1 1c-3.7 1.6-7.9 4.5-7.9 4.5s-2.9-1-6.3-1.3c-3.1-.6-6.8-.6-6.8-.6s-3.7 0-6.9.6c-3.4.5-6.3 1.3-6.3 1.3s-4.2-2.9-7.9-4.5c-3.1-1.3-6-1-6-1s-1.6 3.4-1.6 6.8c0 3.5 1 6.9 1 6.9s-3.6 3.4-4.9 8.6c-1.4 5.3 0 11.9 0 11.9s.7 6 4.4 10.3c3.5 3.9 9.5 5.8 9.5 5.8s4.2 1.5 8.9 2h.8c-1.8 1.9-3.7 4.8-3.7 8.2v8.4c-18.6-5.5-32.1-22.9-32.1-43.4 0-25 20.3-45.2 45.3-45.2 25 0 45.6 20.2 45.6 45.2 0 20.5-13.7 37.9-32.4 43.4z" stroke="#000" stroke-opacity="0" fill="#0078d7"/><g><use xlink:href="#a" transform="matrix(1,0,0,1,370,609) translate(19.074999999999996 14.4)"/><use xlink:href="#b" transform="matrix(1,0,0,1,370,609) translate(126.975 14.4)"/><use xlink:href="#c" transform="matrix(1,0,0,1,370,609) translate(13.549999999999997 36)"/><use xlink:href="#d" transform="matrix(1,0,0,1,370,609) translate(63.5 36)"/><use xlink:href="#e" transform="matrix(1,0,0,1,370,609) translate(107.5 36)"/><use xlink:href="#f" transform="matrix(1,0,0,1,370,609) translate(132.5 36)"/><use xlink:href="#g" transform="matrix(1,0,0,1,370,609) translate(25.599999999999994 57.6)"/><use xlink:href="#h" transform="matrix(1,0,0,1,370,609) translate(114.4 57.6)"/><use xlink:href="#G" transform="matrix(1,0,0,1,370,609) translate(47.025 79.20000000000002)"/></g><path d="M650 500c-27.6 0-50 22.4-50 50 0 27.7 22.4 50 50 50 27.7 0 50-22.4 50-50 0-27.7-22.3-50-50-50zm13.2 93.4V585c0-3.4-1.9-6.3-4.5-8.2h.5c4.8-.5 8.9-2 8.9-2s6.1-1.9 9.5-5.8c3.5-4.3 4.5-10.3 4.5-10.3s1-6.6 0-11.9c-1-4.9-5-8.6-5-8.6s1.3-3.5 1.1-6.9c0-3.4-1.6-6.8-1.6-6.8s-2.9-.3-6.1 1c-3.7 1.6-7.9 4.5-7.9 4.5s-2.9-1-6.3-1.3c-3.1-.6-6.8-.6-6.8-.6s-3.7 0-6.9.6c-3.4.5-6.3 1.3-6.3 1.3s-4.2-2.9-7.9-4.5c-3.1-1.3-6-1-6-1s-1.6 3.4-1.6 6.8c0 3.5 1 6.9 1 6.9s-3.6 3.4-4.9 8.6c-1.4 5.3 0 11.9 0 11.9s.7 6 4.4 10.3c3.5 3.9 9.5 5.8 9.5 5.8s4.2 1.5 8.9 2h.8c-1.8 1.9-3.7 4.8-3.7 8.2v8.4c-18.6-5.5-32.1-22.9-32.1-43.4 0-25 20.3-45.2 45.3-45.2 25 0 45.6 20.2 45.6 45.2 0 20.5-13.7 37.9-32.4 43.4z" stroke="#000" stroke-opacity="0" fill="#0078d7"/><g><use xlink:href="#j" transform="matrix(1,0,0,1,570,609) translate(49.2 14.4)"/><use xlink:href="#k" transform="matrix(1,0,0,1,570,609) translate(100.80000000000001 14.4)"/><use xlink:href="#l" transform="matrix(1,0,0,1,570,609) translate(34.12499999999999 36)"/><use xlink:href="#H" transform="matrix(1,0,0,1,570,609) translate(111.92500000000001 36)"/><use xlink:href="#I" transform="matrix(1,0,0,1,570,609) translate(0.625 57.6)"/><use xlink:href="#s" transform="matrix(1,0,0,1,570,609) translate(85.475 57.6)"/><use xlink:href="#J" transform="matrix(1,0,0,1,570,609) translate(110.475 57.6)"/><use xlink:href="#K" transform="matrix(1,0,0,1,570,609) translate(155.425 57.6)"/><use xlink:href="#q" transform="matrix(1,0,0,1,570,609) translate(18.099999999999994 79.20000000000002)"/><use xlink:href="#L" transform="matrix(1,0,0,1,570,609) translate(75.95 79.20000000000002)"/><use xlink:href="#M" transform="matrix(1,0,0,1,570,609) translate(94.9 79.20000000000002)"/><use xlink:href="#h" transform="matrix(1,0,0,1,570,609) translate(121.9 79.20000000000002)"/><use xlink:href="#N" transform="matrix(1,0,0,1,570,609) translate(32.574999999999996 100.80000000000001)"/><use xlink:href="#K" transform="matrix(1,0,0,1,570,609) translate(123.475 100.80000000000001)"/><use xlink:href="#u" transform="matrix(1,0,0,1,570,609) translate(40.575 122.4)"/></g><path d="M500.96 549.2h80.57" stroke="#5e5e5e" stroke-width="2" fill="none"/><path d="M501 550.2h-1v-.2l-.1-1.8h1.1z" stroke="#5e5e5e" stroke-width=".05" fill="#5e5e5e"/><path d="M596.8 549.2l-14.27 4.64v-9.27z" stroke="#5e5e5e" stroke-width="2" fill="#5e5e5e"/><path d="M500 40h80v80h-80V40z" stroke="#000" stroke-opacity="0" fill="url(#O)"/><path d="M562.1 65.53c0 .65-.36 1.24-.9 1.56l-21.23 12.3v26.24c0 .64-.34 1.23-.88 1.56-.3.16-.64.27-.94.27-.34 0-.63-.1-.92-.27l-20.07-11.62c-.6-.37-.93-.96-.93-1.6v-25.6c0-.64.34-1.23.93-1.56l22.12-12.8c.52-.37 1.2-.37 1.8 0l20 9.9c.64.38 1 .97 1 1.6zM538.4 77.4l20.42-11.8-18.6-9.26-21.5 12.42V93.6l18.76 10.86v-25.5c0-.63.34-1.22.93-1.55zm25.63-6.38c.6.32.93.9.93 1.56v21.5c0 .64-.34 1.24-.93 1.56l-17.5 11.6c-.33.17-.67.28-1 .28-.3 0-.64-.1-.9-.2-.57-.34-.9-.98-.9-1.63V95.2c0-.64.33-1.23.82-1.55l7.94-5.97v-10.1c0-.97.77-1.4 1.06-1.56l8.67-5c.6-.33 1.27-.33 1.8 0zm-1.55 22.68V73.76l-7.5 4.35v10.17c0 .43-.2.76-.5 1.03l-8.28 6.23v8.93z" stroke="#000" stroke-opacity="0" fill="#fff"/><g><use xlink:href="#P" transform="matrix(1,0,0,1,470,129) translate(8.074999999999996 14.4)"/><use xlink:href="#Q" transform="matrix(1,0,0,1,470,129) translate(79.025 14.4)"/><use xlink:href="#R" transform="matrix(1,0,0,1,470,129) translate(31.074999999999996 36)"/><use xlink:href="#S" transform="matrix(1,0,0,1,470,129) translate(37.074999999999996 57.6)"/></g><path d="M800 510h80v80h-80v-80z" stroke="#fff" stroke-opacity="0" stroke-width="2" fill="#3f8624"/><path d="M865.53 552.7c-.3-1.65-2.2-2.83-3.53-3.68-.4-.27-1.53-.7-1.64-1.07 0-.26 0-.53.1-.8l1.08-7.64.92-6.77c.25-2.03-.72-3.42-2.4-4.6-3.43-2.4-7.93-3.36-11.96-4-5.32-.85-9.97-1-15.34-.48-4.85.32-8.9 1.28-13.4 3.2-2.24 1.07-5.25 2.73-4.85 5.6 1.04 8.67 2.32 17.32 3.5 25.97.5 3.95 1.06 7.9 1.58 11.86.2 1.65 1.12 2.94 2.65 3.58 3.27 1.76 7.36 2.3 11.1 2.6 5.16.5 9.55.33 14.66-.63 3.06-.53 8.78-1.5 9.3-5.34.6-4.76 1.27-9.52 1.9-14.27l.24-1.44c1.74.42 6.7 1.32 6.1-2.1zm-27.1-27.23c6.45 0 13.75.75 19.48 3.9.93.48 2.97 1.55 2.36 2.88-.6 1.28-2.55 1.92-3.73 2.4-1.74.64-3.32 1.07-5.16 1.45-7.98 1.6-15.03 1.76-23.1.48-3.63-.38-6.65-1.3-9.92-2.9-.77-.47-2.05-1.22-1.7-2.28.27-.6.68-1.02 1.24-1.34 2.5-1.6 4.8-2.56 7.7-3.1 4.4-1.07 8.3-1.55 12.84-1.5zm16.77 44.97c-.2 1.23-2.25 1.87-3.22 2.2-2.15.74-4.04 1.16-6.3 1.43-4.94.64-9.24.64-14.25 0-3.1-.27-5.72-.96-8.53-2.35-.77-.32-1.23-1-1.28-1.82-1.07-8.5-2.25-16.93-3.42-25.37l-1.23-9.18c2.55 1.4 4.9 2.24 7.77 2.72 3.12.64 5.72.96 8.9 1.18 6.13.42 11.4.16 17.47-.96 3.23-.5 5.9-1.4 8.75-2.95l-2.25 16.72c-5.72-1.87-10.42-3.74-15.8-6.36-.25-.1-.45-.2-.65-.3-.3-.22-.2-.12-.36-.44-.27-.64-.32-1.07-.88-1.6-.5-.37-1.07-.53-1.7-.48-1.32.05-2.34 1.23-2.24 2.56.1 1.28 1.28 2.3 2.6 2.2.37-.06.67-.17 1.08-.33.4-.1.4-.1.82.12 5.47 2.67 10.22 4.65 16 6.57.82.25.82 0 .82.68-.05.54-.1 1.02-.2 1.55l-.67 5.07zm-16.46-25.26c0 .32-.4.26-.5.1-.16-.2.5-.48.5-.1zm21 7.47l.32-2.35c1.07.64 2.86 1.55 3.37 2.73-1.07.42-2.7-.1-3.68-.38z" stroke="#fff" stroke-opacity="0" stroke-width="2" fill="#fff"/><g><use xlink:href="#T" transform="matrix(1,0,0,1,770,599) translate(58.27160493827161 17.77777777777778)"/></g><path d="M781.5 550H701" stroke="#5e5e5e" stroke-width="2" fill="none"/><path d="M796.76 550l-14.26 4.63v-9.26z" stroke="#5e5e5e" stroke-width="2" fill="#5e5e5e"/><path d="M701.03 551h-1.06l.03-1-.05-1h1.08z" stroke="#5e5e5e" stroke-width=".05" fill="#5e5e5e"/><path d="M651.2 199.04V86a6 6 0 0 0-6-6h-46.7" stroke="#5e5e5e" stroke-width="2" fill="none"/><path d="M652.2 200.08l-2-.07v-.98h2z" stroke="#5e5e5e" stroke-width=".05" fill="#5e5e5e"/><path d="M583.24 80l14.26-4.64v9.28z" stroke="#5e5e5e" stroke-width="2" fill="#5e5e5e"/><path d="M820 40h80v80h-80V40z" stroke="#fff" stroke-opacity="0" stroke-width="2" fill="#d86613"/><path d="M859.76 108.74c-.2 0-.38-.06-.53-.18L834.95 94.6c-.4-.24-.58-.6-.58-1V65.26c0-.4.2-.74.58-.97l22.33-12.9c.44-.33 1.12-.16 1.46.3.15.23.2.46.2.7v12.3c0 .34-.2.7-.54.92l-11.2 6.38v14.9l12.6 7.25 11-6.4c.35-.22.74-.22 1.08 0l10.55 6.1c.4.18.6.53.6 1 0 .4-.2.73-.6.9l-22.13 12.83c-.15.12-.34.18-.54.18zm-23.2-15.88l23.8 13.75 20.42-11.84-8.5-4.9-11.35 6.57c-.4.17-.78.17-1.17 0l-14.15-8.17c-.38-.23-.58-.57-.58-.98V71.4c0-.4.2-.74.6-.97l11.13-6.38v-9.78L836.5 66z" stroke="#fff" stroke-opacity="0" stroke-width="2" fill="#fff"/><path d="M884.48 92.27c-.23 0-.4-.04-.57-.17L873.34 86c-.37-.2-.56-.53-.56-.98v-12.9L861.6 65.7c-.37-.2-.57-.58-.57-1V52.43c0-.4.2-.77.57-.94.32-.2.7-.2 1.06 0l22.4 12.86c.38.2.57.57.57.98v25.76c0 .45-.2.78-.56.98-.2.13-.37.2-.6.2zm-9.55-7.95l8.54 4.92V66.02l-20.27-11.7V64l11.2 6.5c.36.2.58.54.56 1z" stroke="#fff" stroke-opacity="0" stroke-width="2" fill="#fff"/><g><use xlink:href="#U" transform="matrix(1,0,0,1,790,129) translate(8.83950617283952 14.222222222222221)"/><use xlink:href="#V" transform="matrix(1,0,0,1,790,129) translate(78.91358024691358 14.222222222222221)"/><use xlink:href="#W" transform="matrix(1,0,0,1,790,129) translate(31.555555555555564 35.55555555555556)"/><use xlink:href="#X" transform="matrix(1,0,0,1,790,129) translate(40.41975308641976 56.888888888888886)"/></g><path d="M900.96 249.2H934a6 6 0 0 0 6-6V86a6 6 0 0 0-6-6h-15.5" stroke="#5e5e5e" stroke-width="2" fill="none"/><path d="M901 250.2h-1v-.2l-.1-1.8h1.1z" stroke="#5e5e5e" stroke-width=".05" fill="#5e5e5e"/><path d="M903.24 80l14.26-4.64v9.28z" stroke="#5e5e5e" stroke-width="2" fill="#5e5e5e"/><defs><path d="M143 4C61 4 22-44 18-125c-5-107 100-154 193-111 17 8 29 25 37 43l-32 9c-13-25-37-40-76-40-61 0-88 39-88 99 0 61 29 100 91 101 35 0 62-11 79-27v-45h-74v-28h105v86C228-13 192 4 143 4" id="Y"/><path d="M24-231v-30h32v30H24zM24 0v-190h32V0H24" id="Z"/><path d="M59-47c-2 24 18 29 38 22v24C64 9 27 4 27-40v-127H5v-23h24l9-43h21v43h35v23H59v120" id="aa"/><path d="M106-169C34-169 62-67 57 0H25v-261h32l-1 103c12-21 28-36 61-36 89 0 53 116 60 194h-32v-121c2-32-8-49-39-48" id="ab"/><path d="M84 4C-5 8 30-112 23-190h32v120c0 31 7 50 39 49 72-2 45-101 50-169h31l1 190h-30c-1-10 1-25-2-33-11 22-28 36-60 37" id="ac"/><path d="M115-194c53 0 69 39 70 98 0 66-23 100-70 100C84 3 66-7 56-30L54 0H23l1-261h32v101c10-23 28-34 59-34zm-8 174c40 0 45-34 45-75 0-40-5-75-45-74-42 0-51 32-51 76 0 43 10 73 51 73" id="ad"/><path d="M205 0l-28-72H64L36 0H1l101-248h38L239 0h-34zm-38-99l-47-123c-12 45-31 82-46 123h93" id="ae"/><path d="M96-169c-40 0-48 33-48 73s9 75 48 75c24 0 41-14 43-38l32 2c-6 37-31 61-74 61-59 0-76-41-82-99-10-93 101-131 147-64 4 7 5 14 7 22l-32 3c-4-21-16-35-41-35" id="af"/><path d="M100-194c62-1 85 37 85 99 1 63-27 99-86 99S16-35 15-95c0-66 28-99 85-99zM99-20c44 1 53-31 53-75 0-43-8-75-51-75s-53 32-53 75 10 74 51 75" id="ag"/><path d="M117-194c89-4 53 116 60 194h-32v-121c0-31-8-49-39-48C34-167 62-67 57 0H25l-1-190h30c1 10-1 24 2 32 11-22 29-35 61-36" id="ah"/><g id="a"><use transform="matrix(0.05,0,0,0.05,0,0)" xlink:href="#Y"/><use transform="matrix(0.05,0,0,0.05,14,0)" xlink:href="#Z"/><use transform="matrix(0.05,0,0,0.05,17.95,0)" xlink:href="#aa"/><use transform="matrix(0.05,0,0,0.05,22.95,0)" xlink:href="#ab"/><use transform="matrix(0.05,0,0,0.05,32.95,0)" xlink:href="#ac"/><use transform="matrix(0.05,0,0,0.05,42.95,0)" xlink:href="#ad"/><use transform="matrix(0.05,0,0,0.05,52.95,0)" xlink:href="#ae"/><use transform="matrix(0.05,0,0,0.05,64.95,0)" xlink:href="#af"/><use transform="matrix(0.05,0,0,0.05,73.95,0)" xlink:href="#Z"/><use transform="matrix(0.05,0,0,0.05,77.9,0)" xlink:href="#aa"/><use transform="matrix(0.05,0,0,0.05,82.9,0)" xlink:href="#ag"/><use transform="matrix(0.05,0,0,0.05,92.9,0)" xlink:href="#ah"/></g><path d="M141-36C126-15 110 5 73 4 37 3 15-17 15-53c-1-64 63-63 125-63 3-35-9-54-41-54-24 1-41 7-42 31l-33-3c5-37 33-52 76-52 45 0 72 20 72 64v82c-1 20 7 32 28 27v20c-31 9-61-2-59-35zM48-53c0 20 12 33 32 33 41-3 63-29 60-74-43 2-92-5-92 41" id="ai"/><path d="M24 0v-261h32V0H24" id="aj"/><g id="b"><use transform="matrix(0.05,0,0,0.05,0,0)" xlink:href="#ai"/><use transform="matrix(0.05,0,0,0.05,10,0)" xlink:href="#aj"/></g><path d="M100-194c63 0 86 42 84 106H49c0 40 14 67 53 68 26 1 43-12 49-29l28 8c-11 28-37 45-77 45C44 4 14-33 15-96c1-61 26-98 85-98zm52 81c6-60-76-77-97-28-3 7-6 17-6 28h103" id="ak"/><path d="M114-163C36-179 61-72 57 0H25l-1-190h30c1 12-1 29 2 39 6-27 23-49 58-41v29" id="al"/><g id="c"><use transform="matrix(0.05,0,0,0.05,0,0)" xlink:href="#ab"/><use transform="matrix(0.05,0,0,0.05,10,0)" xlink:href="#ai"/><use transform="matrix(0.05,0,0,0.05,20,0)" xlink:href="#af"/><use transform="matrix(0.05,0,0,0.05,29,0)" xlink:href="#ak"/><use transform="matrix(0.05,0,0,0.05,39,0)" xlink:href="#al"/></g><path d="M115-194c55 1 70 41 70 98S169 2 115 4C84 4 66-9 55-30l1 105H24l-1-265h31l2 30c10-21 28-34 59-34zm-8 174c40 0 45-34 45-75s-6-73-45-74c-42 0-51 32-51 76 0 43 10 73 51 73" id="am"/><path d="M135-143c-3-34-86-38-87 0 15 53 115 12 119 90S17 21 10-45l28-5c4 36 97 45 98 0-10-56-113-15-118-90-4-57 82-63 122-42 12 7 21 19 24 35" id="an"/><g id="d"><use transform="matrix(0.05,0,0,0.05,0,0)" xlink:href="#am"/><use transform="matrix(0.05,0,0,0.05,10,0)" xlink:href="#ac"/><use transform="matrix(0.05,0,0,0.05,20,0)" xlink:href="#an"/><use transform="matrix(0.05,0,0,0.05,29,0)" xlink:href="#ab"/></g><g id="e"><use transform="matrix(0.05,0,0,0.05,0,0)" xlink:href="#ak"/><use transform="matrix(0.05,0,0,0.05,10,0)" xlink:href="#ah"/></g><g id="f"><use transform="matrix(0.05,0,0,0.05,0,0)" xlink:href="#ak"/><use transform="matrix(0.05,0,0,0.05,10,0)" xlink:href="#aj"/></g><g id="g"><use transform="matrix(0.05,0,0,0.05,0,0)" xlink:href="#al"/><use transform="matrix(0.05,0,0,0.05,5.95,0)" xlink:href="#ak"/><use transform="matrix(0.05,0,0,0.05,15.949999999999998,0)" xlink:href="#am"/><use transform="matrix(0.05,0,0,0.05,25.950000000000003,0)" xlink:href="#ag"/><use transform="matrix(0.05,0,0,0.05,35.95,0)" xlink:href="#an"/><use transform="matrix(0.05,0,0,0.05,44.95,0)" xlink:href="#Z"/><use transform="matrix(0.05,0,0,0.05,48.900000000000006,0)" xlink:href="#aa"/><use transform="matrix(0.05,0,0,0.05,53.900000000000006,0)" xlink:href="#ag"/><use transform="matrix(0.05,0,0,0.05,63.900000000000006,0)" xlink:href="#al"/><use transform="matrix(0.05,0,0,0.05,69.85000000000001,0)" xlink:href="#Z"/><use transform="matrix(0.05,0,0,0.05,73.80000000000001,0)" xlink:href="#ag"/></g><path d="M85-194c31 0 48 13 60 33l-1-100h32l1 261h-30c-2-10 0-23-3-31C134-8 116 4 85 4 32 4 16-35 15-94c0-66 23-100 70-100zm9 24c-40 0-46 34-46 75 0 40 6 74 45 74 42 0 51-32 51-76 0-42-9-74-50-73" id="ao"/><g id="h"><use transform="matrix(0.05,0,0,0.05,0,0)" xlink:href="#ao"/><use transform="matrix(0.05,0,0,0.05,10,0)" xlink:href="#ak"/></g><path d="M143 0L79-87 56-68V0H24v-261h32v163l83-92h37l-77 82L181 0h-38" id="ap"/><g id="i"><use transform="matrix(0.05,0,0,0.05,0,0)" xlink:href="#ad"/><use transform="matrix(0.05,0,0,0.05,10,0)" xlink:href="#ai"/><use transform="matrix(0.05,0,0,0.05,20,0)" xlink:href="#af"/><use transform="matrix(0.05,0,0,0.05,29,0)" xlink:href="#ap"/><use transform="matrix(0.05,0,0,0.05,38,0)" xlink:href="#ak"/><use transform="matrix(0.05,0,0,0.05,48,0)" xlink:href="#ah"/><use transform="matrix(0.05,0,0,0.05,58,0)" xlink:href="#ao"/></g><path d="M169-182c-1-43-94-46-97-3 18 66 151 10 154 114 3 95-165 93-204 36-6-8-10-19-12-30l50-8c3 46 112 56 116 5-17-69-150-10-154-114-4-87 153-88 188-35 5 8 8 18 10 28" id="aq"/><path d="M136-208V0H84v-208H4v-40h212v40h-80" id="ar"/><path d="M24 0v-248h195v40H76v63h132v40H76v65h150V0H24" id="as"/><path d="M24-248c93 1 206-16 204 79-1 75-69 88-152 82V0H24v-248zm52 121c47 0 100 7 100-41 0-47-54-39-100-39v80" id="at"/><g id="j"><use transform="matrix(0.05,0,0,0.05,0,0)" xlink:href="#aq"/><use transform="matrix(0.05,0,0,0.05,12,0)" xlink:href="#ar"/><use transform="matrix(0.05,0,0,0.05,22.950000000000003,0)" xlink:href="#as"/><use transform="matrix(0.05,0,0,0.05,34.95,0)" xlink:href="#at"/></g><path d="M23 0v-37h61v-169l-59 37v-38l62-41h46v211h57V0H23" id="au"/><use transform="matrix(0.05,0,0,0.05,0,0)" xlink:href="#au" id="k"/><path d="M212-179c-10-28-35-45-73-45-59 0-87 40-87 99 0 60 29 101 89 101 43 0 62-24 78-52l27 14C228-24 195 4 139 4 59 4 22-46 18-125c-6-104 99-153 187-111 19 9 31 26 39 46" id="av"/><g id="l"><use transform="matrix(0.05,0,0,0.05,0,0)" xlink:href="#av"/><use transform="matrix(0.05,0,0,0.05,12.950000000000001,0)" xlink:href="#ag"/><use transform="matrix(0.05,0,0,0.05,22.950000000000003,0)" xlink:href="#ah"/><use transform="matrix(0.05,0,0,0.05,32.95,0)" xlink:href="#an"/><use transform="matrix(0.05,0,0,0.05,41.95,0)" xlink:href="#aa"/><use transform="matrix(0.05,0,0,0.05,46.95,0)" xlink:href="#al"/><use transform="matrix(0.05,0,0,0.05,52.900000000000006,0)" xlink:href="#ac"/><use transform="matrix(0.05,0,0,0.05,62.900000000000006,0)" xlink:href="#Z"/><use transform="matrix(0.05,0,0,0.05,66.85000000000001,0)" xlink:href="#al"/></g><g id="m"><use transform="matrix(0.05,0,0,0.05,0,0)" xlink:href="#aj"/><use transform="matrix(0.05,0,0,0.05,3.95,0)" xlink:href="#ai"/></g><path d="M210-169c-67 3-38 105-44 169h-31v-121c0-29-5-50-35-48C34-165 62-65 56 0H25l-1-190h30c1 10-1 24 2 32 10-44 99-50 107 0 11-21 27-35 58-36 85-2 47 119 55 194h-31v-121c0-29-5-49-35-48" id="aw"/><path d="M177-190C167-65 218 103 67 71c-23-6-38-20-44-43l32-5c15 47 100 32 89-28v-30C133-14 115 1 83 1 29 1 15-40 15-95c0-56 16-97 71-98 29-1 48 16 59 35 1-10 0-23 2-32h30zM94-22c36 0 50-32 50-73 0-42-14-75-50-75-39 0-46 34-46 75s6 73 46 73" id="ax"/><g id="n"><use transform="matrix(0.05,0,0,0.05,0,0)" xlink:href="#Z"/><use transform="matrix(0.05,0,0,0.05,3.95,0)" xlink:href="#aw"/><use transform="matrix(0.05,0,0,0.05,18.900000000000002,0)" xlink:href="#ai"/><use transform="matrix(0.05,0,0,0.05,28.900000000000002,0)" xlink:href="#ax"/><use transform="matrix(0.05,0,0,0.05,38.900000000000006,0)" xlink:href="#ak"/><use transform="matrix(0.05,0,0,0.05,48.900000000000006,0)" xlink:href="#ah"/></g><path d="M233-177c-1 41-23 64-60 70L243 0h-38l-65-103H63V0H30v-248c88 3 205-21 203 71zM63-129c60-2 137 13 137-47 0-61-80-42-137-45v92" id="ay"/><path d="M240 0l2-218c-23 76-54 145-80 218h-23L58-218 59 0H30v-248h44l77 211c21-75 51-140 76-211h43V0h-30" id="az"/><g id="o"><use transform="matrix(0.05,0,0,0.05,0,0)" xlink:href="#ae"/><use transform="matrix(0.05,0,0,0.05,12,0)" xlink:href="#ay"/><use transform="matrix(0.05,0,0,0.05,24.950000000000003,0)" xlink:href="#az"/></g><use transform="matrix(0.05,0,0,0.05,0,0)" xlink:href="#Z" id="p"/><g id="q"><use transform="matrix(0.05,0,0,0.05,0,0)" xlink:href="#an"/><use transform="matrix(0.05,0,0,0.05,9,0)" xlink:href="#ac"/><use transform="matrix(0.05,0,0,0.05,19,0)" xlink:href="#ad"/><use transform="matrix(0.05,0,0,0.05,29,0)" xlink:href="#Z"/><use transform="matrix(0.05,0,0,0.05,32.95,0)" xlink:href="#al"/><use transform="matrix(0.05,0,0,0.05,38.900000000000006,0)" xlink:href="#aj"/><use transform="matrix(0.05,0,0,0.05,42.85000000000001,0)" xlink:href="#ai"/></g><path d="M30 0v-248h187v28H63v79h144v27H63v87h162V0H30" id="aA"/><g id="r"><use transform="matrix(0.05,0,0,0.05,0,0)" xlink:href="#aA"/><use transform="matrix(0.05,0,0,0.05,12,0)" xlink:href="#av"/><use transform="matrix(0.05,0,0,0.05,24.950000000000003,0)" xlink:href="#ay"/></g><g id="s"><use transform="matrix(0.05,0,0,0.05,0,0)" xlink:href="#ao"/><use transform="matrix(0.05,0,0,0.05,10,0)" xlink:href="#ak"/></g><path d="M16-82v-28h88v28H16" id="aB"/><path d="M101-251c82-7 93 87 43 132L82-64C71-53 59-42 53-27h129V0H18c2-99 128-94 128-182 0-28-16-43-45-43s-46 15-49 41l-32-3c6-41 34-60 81-64" id="aC"/><g id="t"><use transform="matrix(0.05,0,0,0.05,0,0)" xlink:href="#ak"/><use transform="matrix(0.05,0,0,0.05,10,0)" xlink:href="#ac"/><use transform="matrix(0.05,0,0,0.05,20,0)" xlink:href="#aB"/><use transform="matrix(0.05,0,0,0.05,25.950000000000003,0)" xlink:href="#an"/><use transform="matrix(0.05,0,0,0.05,34.95,0)" xlink:href="#ag"/><use transform="matrix(0.05,0,0,0.05,44.95,0)" xlink:href="#ac"/><use transform="matrix(0.05,0,0,0.05,54.95,0)" xlink:href="#aa"/><use transform="matrix(0.05,0,0,0.05,59.95,0)" xlink:href="#ab"/><use transform="matrix(0.05,0,0,0.05,69.95,0)" xlink:href="#aB"/><use transform="matrix(0.05,0,0,0.05,75.9,0)" xlink:href="#aC"/></g><path d="M206 0h-36l-40-164L89 0H53L-1-190h32L70-26l43-164h34l41 164 42-164h31" id="aD"/><path d="M27 0v-27h64v-190l-56 39v-29l58-41h29v221h61V0H27" id="aE"/><g id="u"><use transform="matrix(0.05,0,0,0.05,0,0)" xlink:href="#ak"/><use transform="matrix(0.05,0,0,0.05,10,0)" xlink:href="#ac"/><use transform="matrix(0.05,0,0,0.05,20,0)" xlink:href="#aB"/><use transform="matrix(0.05,0,0,0.05,25.950000000000003,0)" xlink:href="#aD"/><use transform="matrix(0.05,0,0,0.05,38.9,0)" xlink:href="#ak"/><use transform="matrix(0.05,0,0,0.05,48.9,0)" xlink:href="#an"/><use transform="matrix(0.05,0,0,0.05,57.900000000000006,0)" xlink:href="#aa"/><use transform="matrix(0.05,0,0,0.05,62.900000000000006,0)" xlink:href="#aB"/><use transform="matrix(0.05,0,0,0.05,68.85,0)" xlink:href="#aE"/></g><path d="M182-182c0 78-84 86-111 141h115V0H12c-6-101 99-100 120-180 1-22-12-31-33-32-23 0-32 14-35 34l-49-3c5-45 32-70 84-70 51 0 83 22 83 69" id="aF"/><use transform="matrix(0.05,0,0,0.05,0,0)" xlink:href="#aF" id="v"/><path d="M30-248c118-7 216 8 213 122C240-48 200 0 122 0H30v-248zM63-27c89 8 146-16 146-99s-60-101-146-95v194" id="aG"/><g id="w"><use transform="matrix(0.05,0,0,0.05,0,0)" xlink:href="#aG"/><use transform="matrix(0.05,0,0,0.05,12.950000000000001,0)" xlink:href="#ak"/><use transform="matrix(0.05,0,0,0.05,22.950000000000003,0)" xlink:href="#an"/><use transform="matrix(0.05,0,0,0.05,31.950000000000003,0)" xlink:href="#am"/><use transform="matrix(0.05,0,0,0.05,41.95,0)" xlink:href="#aj"/><use transform="matrix(0.05,0,0,0.05,45.900000000000006,0)" xlink:href="#ak"/><use transform="matrix(0.05,0,0,0.05,55.900000000000006,0)" xlink:href="#ax"/><use transform="matrix(0.05,0,0,0.05,65.9,0)" xlink:href="#ai"/><use transform="matrix(0.05,0,0,0.05,75.9,0)" xlink:href="#al"/></g><g id="x"><use transform="matrix(0.05,0,0,0.05,0,0)" xlink:href="#ak"/><use transform="matrix(0.05,0,0,0.05,10,0)" xlink:href="#aj"/></g><path d="M108 0H70L1-190h34L89-25l56-165h34" id="aH"/><g id="y"><use transform="matrix(0.05,0,0,0.05,0,0)" xlink:href="#an"/><use transform="matrix(0.05,0,0,0.05,9,0)" xlink:href="#ak"/><use transform="matrix(0.05,0,0,0.05,19,0)" xlink:href="#al"/><use transform="matrix(0.05,0,0,0.05,24.95,0)" xlink:href="#aH"/><use transform="matrix(0.05,0,0,0.05,33.95,0)" xlink:href="#Z"/><use transform="matrix(0.05,0,0,0.05,37.900000000000006,0)" xlink:href="#af"/><use transform="matrix(0.05,0,0,0.05,46.900000000000006,0)" xlink:href="#Z"/><use transform="matrix(0.05,0,0,0.05,50.85000000000001,0)" xlink:href="#ag"/></g><g id="z"><use transform="matrix(0.05,0,0,0.05,0,0)" xlink:href="#ad"/><use transform="matrix(0.05,0,0,0.05,10,0)" xlink:href="#ai"/><use transform="matrix(0.05,0,0,0.05,20,0)" xlink:href="#af"/><use transform="matrix(0.05,0,0,0.05,29,0)" xlink:href="#ap"/><use transform="matrix(0.05,0,0,0.05,38,0)" xlink:href="#ak"/><use transform="matrix(0.05,0,0,0.05,48,0)" xlink:href="#ah"/><use transform="matrix(0.05,0,0,0.05,58,0)" xlink:href="#ao"/></g><g id="A"><use transform="matrix(0.05,0,0,0.05,0,0)" xlink:href="#al"/><use transform="matrix(0.05,0,0,0.05,5.95,0)" xlink:href="#ak"/><use transform="matrix(0.05,0,0,0.05,15.949999999999998,0)" xlink:href="#ax"/><use transform="matrix(0.05,0,0,0.05,25.950000000000003,0)" xlink:href="#Z"/><use transform="matrix(0.05,0,0,0.05,29.899999999999995,0)" xlink:href="#ag"/><use transform="matrix(0.05,0,0,0.05,39.9,0)" xlink:href="#ah"/></g><path d="M118-194c89-4 53 116 60 194h-32v-121c0-31-8-49-39-48C35-167 63-67 58 0H26l-1-190h30c1 10-1 24 2 32 11-22 29-35 61-36zm47-64c-3 23-9 48-36 47-26-1-65-44-74 0H39c4-23 8-48 36-47s64 44 74 0h16" id="aI"/><g id="B"><use transform="matrix(0.05,0,0,0.05,0,0)" xlink:href="#ak"/><use transform="matrix(0.05,0,0,0.05,10,0)" xlink:href="#an"/><use transform="matrix(0.05,0,0,0.05,19,0)" xlink:href="#am"/><use transform="matrix(0.05,0,0,0.05,29,0)" xlink:href="#ai"/><use transform="matrix(0.05,0,0,0.05,39,0)" xlink:href="#aI"/><use transform="matrix(0.05,0,0,0.05,49,0)" xlink:href="#ai"/></g><g id="C"><use transform="matrix(0.05,0,0,0.05,0,0)" xlink:href="#af"/><use transform="matrix(0.05,0,0,0.05,9,0)" xlink:href="#ag"/><use transform="matrix(0.05,0,0,0.05,19,0)" xlink:href="#ah"/></g><path d="M142-158h-39l-4-90h48zm-75 0H28l-4-90h48" id="aJ"/><path d="M135-194c52 0 70 43 70 98 0 56-19 99-73 100-30 1-46-15-58-35L72 0H24l1-261h50v104c11-23 29-37 60-37zM114-30c31 0 40-27 40-66 0-37-7-63-39-63s-41 28-41 65c0 36 8 64 40 64" id="aK"/><path d="M25 0v-261h50V0H25" id="aL"/><path d="M85 4C-2 5 27-109 22-190h50c7 57-23 150 33 157 60-5 35-97 40-157h50l1 190h-47c-2-12 1-28-3-38-12 25-28 42-61 42" id="aM"/><path d="M185-48c-13 30-37 53-82 52C43 2 14-33 14-96s30-98 90-98c62 0 83 45 84 108H66c0 31 8 55 39 56 18 0 30-7 34-22zm-45-69c5-46-57-63-70-21-2 6-4 13-4 21h74" id="aN"/><g id="D"><use transform="matrix(0.05,0,0,0.05,0,0)" xlink:href="#aJ"/><use transform="matrix(0.05,0,0,0.05,8.5,0)" xlink:href="#aK"/><use transform="matrix(0.05,0,0,0.05,19.450000000000003,0)" xlink:href="#aL"/><use transform="matrix(0.05,0,0,0.05,24.450000000000003,0)" xlink:href="#aM"/><use transform="matrix(0.05,0,0,0.05,35.400000000000006,0)" xlink:href="#aN"/></g><path d="M195-6C206 82 75 100 31 46c-4-6-6-13-8-21l49-6c3 16 16 24 34 25 40 0 42-37 40-79-11 22-30 35-61 35-53 0-70-43-70-97 0-56 18-96 73-97 30 0 46 14 59 34l2-30h47zm-90-29c32 0 41-27 41-63 0-35-9-62-40-62-32 0-39 29-40 63 0 36 9 62 39 62" id="aO"/><path d="M135-150c-39-12-60 13-60 57V0H25l-1-190h47c2 13-1 29 3 40 6-28 27-53 61-41v41" id="aP"/><path d="M135-194c87-1 58 113 63 194h-50c-7-57 23-157-34-157-59 0-34 97-39 157H25l-1-190h47c2 12-1 28 3 38 12-26 28-41 61-42" id="aQ"/><g id="E"><use transform="matrix(0.05,0,0,0.05,0,0)" xlink:href="#aO"/><use transform="matrix(0.05,0,0,0.05,10.950000000000001,0)" xlink:href="#aP"/><use transform="matrix(0.05,0,0,0.05,17.950000000000003,0)" xlink:href="#aN"/><use transform="matrix(0.05,0,0,0.05,27.950000000000003,0)" xlink:href="#aN"/><use transform="matrix(0.05,0,0,0.05,37.95,0)" xlink:href="#aQ"/></g><path d="M88-194c31-1 46 15 58 34l-1-101h50l1 261h-48c-2-10 0-23-3-31C134-8 116 4 84 4 32 4 16-41 15-95c0-56 19-97 73-99zm17 164c33 0 40-30 41-66 1-37-9-64-41-64s-38 30-39 65c0 43 13 65 39 65" id="aR"/><path d="M135-194c53 0 70 44 70 98 0 56-19 98-73 100-31 1-45-17-59-34 3 33 2 69 2 105H25l-1-265h48c2 10 0 23 3 31 11-24 29-35 60-35zM114-30c33 0 39-31 40-66 0-38-9-64-40-64-56 0-55 130 0 130" id="aS"/><path d="M110-194c64 0 96 36 96 99 0 64-35 99-97 99-61 0-95-36-95-99 0-62 34-99 96-99zm-1 164c35 0 45-28 45-65 0-40-10-65-43-65-34 0-45 26-45 65 0 36 10 65 43 65" id="aT"/><path d="M123 10C108 53 80 86 19 72V37c35 8 53-11 59-39L3-190h52l48 148c12-52 28-100 44-148h51" id="aU"/><path d="M220-157c-53 9-28 100-34 157h-49v-107c1-27-5-49-29-50C55-147 81-57 75 0H25l-1-190h47c2 12-1 28 3 38 10-53 101-56 108 0 13-22 24-43 59-42 82 1 51 116 57 194h-49v-107c-1-25-5-48-29-50" id="aV"/><path d="M115-3C79 11 28 4 28-45v-112H4v-33h27l15-45h31v45h36v33H77v99c-1 23 16 31 38 25v30" id="aW"/><g id="F"><use transform="matrix(0.05,0,0,0.05,0,0)" xlink:href="#aR"/><use transform="matrix(0.05,0,0,0.05,10.950000000000001,0)" xlink:href="#aN"/><use transform="matrix(0.05,0,0,0.05,20.950000000000003,0)" xlink:href="#aS"/><use transform="matrix(0.05,0,0,0.05,31.900000000000006,0)" xlink:href="#aL"/><use transform="matrix(0.05,0,0,0.05,36.900000000000006,0)" xlink:href="#aT"/><use transform="matrix(0.05,0,0,0.05,47.85000000000001,0)" xlink:href="#aU"/><use transform="matrix(0.05,0,0,0.05,57.85,0)" xlink:href="#aV"/><use transform="matrix(0.05,0,0,0.05,73.85000000000001,0)" xlink:href="#aN"/><use transform="matrix(0.05,0,0,0.05,83.85000000000001,0)" xlink:href="#aQ"/><use transform="matrix(0.05,0,0,0.05,94.80000000000001,0)" xlink:href="#aW"/><use transform="matrix(0.05,0,0,0.05,100.75000000000001,0)" xlink:href="#aJ"/></g><path d="M101-234c-31-9-42 10-38 44h38v23H63V0H32v-167H5v-23h27c-7-52 17-82 69-68v24" id="aX"/><g id="G"><use transform="matrix(0.05,0,0,0.05,0,0)" xlink:href="#aX"/><use transform="matrix(0.05,0,0,0.05,5,0)" xlink:href="#al"/><use transform="matrix(0.05,0,0,0.05,10.95,0)" xlink:href="#ag"/><use transform="matrix(0.05,0,0,0.05,20.95,0)" xlink:href="#ah"/><use transform="matrix(0.05,0,0,0.05,30.950000000000003,0)" xlink:href="#aa"/><use transform="matrix(0.05,0,0,0.05,35.95,0)" xlink:href="#ak"/><use transform="matrix(0.05,0,0,0.05,45.95,0)" xlink:href="#ah"/><use transform="matrix(0.05,0,0,0.05,55.95,0)" xlink:href="#ao"/></g><g id="H"><use transform="matrix(0.05,0,0,0.05,0,0)" xlink:href="#aj"/><use transform="matrix(0.05,0,0,0.05,3.95,0)" xlink:href="#ai"/></g><path d="M100-194c62-1 85 37 85 99 1 63-27 99-86 99S16-35 15-95c0-66 28-99 85-99zM99-20c44 1 53-31 53-75 0-43-8-75-51-75s-53 32-53 75 10 74 51 75zM76-211c8-23 27-35 38-54h36v5l-58 49H76" id="aY"/><g id="I"><use transform="matrix(0.05,0,0,0.05,0,0)" xlink:href="#ai"/><use transform="matrix(0.05,0,0,0.05,10,0)" xlink:href="#am"/><use transform="matrix(0.05,0,0,0.05,20,0)" xlink:href="#aj"/><use transform="matrix(0.05,0,0,0.05,23.95,0)" xlink:href="#Z"/><use transform="matrix(0.05,0,0,0.05,27.899999999999995,0)" xlink:href="#af"/><use transform="matrix(0.05,0,0,0.05,36.9,0)" xlink:href="#ai"/><use transform="matrix(0.05,0,0,0.05,46.9,0)" xlink:href="#af"/><use transform="matrix(0.05,0,0,0.05,55.900000000000006,0)" xlink:href="#Z"/><use transform="matrix(0.05,0,0,0.05,59.85,0)" xlink:href="#aY"/><use transform="matrix(0.05,0,0,0.05,69.85,0)" xlink:href="#ah"/></g><g id="J"><use transform="matrix(0.05,0,0,0.05,0,0)" xlink:href="#al"/><use transform="matrix(0.05,0,0,0.05,5.95,0)" xlink:href="#ak"/><use transform="matrix(0.05,0,0,0.05,15.949999999999998,0)" xlink:href="#ai"/><use transform="matrix(0.05,0,0,0.05,25.950000000000003,0)" xlink:href="#af"/><use transform="matrix(0.05,0,0,0.05,34.95,0)" xlink:href="#aa"/></g><use transform="matrix(0.05,0,0,0.05,0,0)" xlink:href="#Z" id="K"/><g id="L"><use transform="matrix(0.05,0,0,0.05,0,0)" xlink:href="#ai"/><use transform="matrix(0.05,0,0,0.05,10,0)" xlink:href="#aj"/></g><path d="M185-189c-5-48-123-54-124 2 14 75 158 14 163 119 3 78-121 87-175 55-17-10-28-26-33-46l33-7c5 56 141 63 141-1 0-78-155-14-162-118-5-82 145-84 179-34 5 7 8 16 11 25" id="aZ"/><path d="M126-127c33 6 58 20 58 59 0 88-139 92-164 29-3-8-5-16-6-25l32-3c6 27 21 44 54 44 32 0 52-15 52-46 0-38-36-46-79-43v-28c39 1 72-4 72-42 0-27-17-43-46-43-28 0-47 15-49 41l-32-3c6-42 35-63 81-64 48-1 79 21 79 65 0 36-21 52-52 59" id="ba"/><g id="M"><use transform="matrix(0.05,0,0,0.05,0,0)" xlink:href="#aZ"/><use transform="matrix(0.05,0,0,0.05,12,0)" xlink:href="#ba"/></g><g id="N"><use transform="matrix(0.05,0,0,0.05,0,0)" xlink:href="#ak"/><use transform="matrix(0.05,0,0,0.05,10,0)" xlink:href="#ac"/><use transform="matrix(0.05,0,0,0.05,20,0)" xlink:href="#aB"/><use transform="matrix(0.05,0,0,0.05,25.950000000000003,0)" xlink:href="#an"/><use transform="matrix(0.05,0,0,0.05,34.95,0)" xlink:href="#ag"/><use transform="matrix(0.05,0,0,0.05,44.95,0)" xlink:href="#ac"/><use transform="matrix(0.05,0,0,0.05,54.95,0)" xlink:href="#aa"/><use transform="matrix(0.05,0,0,0.05,59.95,0)" xlink:href="#ab"/><use transform="matrix(0.05,0,0,0.05,69.95,0)" xlink:href="#aB"/><use transform="matrix(0.05,0,0,0.05,75.9,0)" xlink:href="#aC"/></g><linearGradient gradientUnits="userSpaceOnUse" id="O" x1="500" y1="120" x2="580" y2="40"><stop offset="0%" stop-color="#c8511b"/><stop offset="100%" stop-color="#f90"/></linearGradient><path d="M9 0v-24l116-142H16v-24h144v24L44-24h123V0H9" id="bb"/><g id="P"><use transform="matrix(0.05,0,0,0.05,0,0)" xlink:href="#ae"/><use transform="matrix(0.05,0,0,0.05,12,0)" xlink:href="#aw"/><use transform="matrix(0.05,0,0,0.05,26.950000000000003,0)" xlink:href="#ai"/><use transform="matrix(0.05,0,0,0.05,36.95,0)" xlink:href="#bb"/><use transform="matrix(0.05,0,0,0.05,45.95,0)" xlink:href="#ag"/><use transform="matrix(0.05,0,0,0.05,55.95,0)" xlink:href="#ah"/></g><g id="Q"><use transform="matrix(0.05,0,0,0.05,0,0)" xlink:href="#aA"/><use transform="matrix(0.05,0,0,0.05,12,0)" xlink:href="#aj"/><use transform="matrix(0.05,0,0,0.05,15.949999999999998,0)" xlink:href="#ai"/><use transform="matrix(0.05,0,0,0.05,25.950000000000003,0)" xlink:href="#an"/><use transform="matrix(0.05,0,0,0.05,34.95,0)" xlink:href="#aa"/><use transform="matrix(0.05,0,0,0.05,39.95,0)" xlink:href="#Z"/><use transform="matrix(0.05,0,0,0.05,43.900000000000006,0)" xlink:href="#af"/></g><g id="R"><use transform="matrix(0.05,0,0,0.05,0,0)" xlink:href="#av"/><use transform="matrix(0.05,0,0,0.05,12.950000000000001,0)" xlink:href="#ag"/><use transform="matrix(0.05,0,0,0.05,22.950000000000003,0)" xlink:href="#ah"/><use transform="matrix(0.05,0,0,0.05,32.95,0)" xlink:href="#aa"/><use transform="matrix(0.05,0,0,0.05,37.95,0)" xlink:href="#ai"/><use transform="matrix(0.05,0,0,0.05,47.95,0)" xlink:href="#Z"/><use transform="matrix(0.05,0,0,0.05,51.900000000000006,0)" xlink:href="#ah"/><use transform="matrix(0.05,0,0,0.05,61.900000000000006,0)" xlink:href="#ak"/><use transform="matrix(0.05,0,0,0.05,71.9,0)" xlink:href="#al"/></g><path d="M179-190L93 31C79 59 56 82 12 73V49c39 6 53-20 64-50L1-190h34L92-34l54-156h33" id="bc"/><g id="S"><use transform="matrix(0.05,0,0,0.05,0,0)" xlink:href="#ay"/><use transform="matrix(0.05,0,0,0.05,12.950000000000001,0)" xlink:href="#ak"/><use transform="matrix(0.05,0,0,0.05,22.950000000000003,0)" xlink:href="#ax"/><use transform="matrix(0.05,0,0,0.05,32.95,0)" xlink:href="#Z"/><use transform="matrix(0.05,0,0,0.05,36.900000000000006,0)" xlink:href="#an"/><use transform="matrix(0.05,0,0,0.05,45.900000000000006,0)" xlink:href="#aa"/><use transform="matrix(0.05,0,0,0.05,50.900000000000006,0)" xlink:href="#al"/><use transform="matrix(0.05,0,0,0.05,56.85,0)" xlink:href="#bc"/></g><path fill="#333" d="M135-143c-3-34-86-38-87 0 15 53 115 12 119 90S17 21 10-45l28-5c4 36 97 45 98 0-10-56-113-15-118-90-4-57 82-63 122-42 12 7 21 19 24 35" id="bd"/><path fill="#333" d="M126-127c33 6 58 20 58 59 0 88-139 92-164 29-3-8-5-16-6-25l32-3c6 27 21 44 54 44 32 0 52-15 52-46 0-38-36-46-79-43v-28c39 1 72-4 72-42 0-27-17-43-46-43-28 0-47 15-49 41l-32-3c6-42 35-63 81-64 48-1 79 21 79 65 0 36-21 52-52 59" id="be"/><g id="T"><use transform="matrix(0.06172839506172839,0,0,0.06172839506172839,0,0)" xlink:href="#bd"/><use transform="matrix(0.06172839506172839,0,0,0.06172839506172839,11.11111111111111,0)" xlink:href="#be"/></g><path fill="#333" d="M205 0l-28-72H64L36 0H1l101-248h38L239 0h-34zm-38-99l-47-123c-12 45-31 82-46 123h93" id="bf"/><path fill="#333" d="M210-169c-67 3-38 105-44 169h-31v-121c0-29-5-50-35-48C34-165 62-65 56 0H25l-1-190h30c1 10-1 24 2 32 10-44 99-50 107 0 11-21 27-35 58-36 85-2 47 119 55 194h-31v-121c0-29-5-49-35-48" id="bg"/><path fill="#333" d="M141-36C126-15 110 5 73 4 37 3 15-17 15-53c-1-64 63-63 125-63 3-35-9-54-41-54-24 1-41 7-42 31l-33-3c5-37 33-52 76-52 45 0 72 20 72 64v82c-1 20 7 32 28 27v20c-31 9-61-2-59-35zM48-53c0 20 12 33 32 33 41-3 63-29 60-74-43 2-92-5-92 41" id="bh"/><path fill="#333" d="M9 0v-24l116-142H16v-24h144v24L44-24h123V0H9" id="bi"/><path fill="#333" d="M100-194c62-1 85 37 85 99 1 63-27 99-86 99S16-35 15-95c0-66 28-99 85-99zM99-20c44 1 53-31 53-75 0-43-8-75-51-75s-53 32-53 75 10 74 51 75" id="bj"/><path fill="#333" d="M117-194c89-4 53 116 60 194h-32v-121c0-31-8-49-39-48C34-167 62-67 57 0H25l-1-190h30c1 10-1 24 2 32 11-22 29-35 61-36" id="bk"/><g id="U"><use transform="matrix(0.049382716049382706,0,0,0.049382716049382706,0,0)" xlink:href="#bf"/><use transform="matrix(0.049382716049382706,0,0,0.049382716049382706,11.85185185185185,0)" xlink:href="#bg"/><use transform="matrix(0.049382716049382706,0,0,0.049382716049382706,26.617283950617278,0)" xlink:href="#bh"/><use transform="matrix(0.049382716049382706,0,0,0.049382716049382706,36.49382716049382,0)" xlink:href="#bi"/><use transform="matrix(0.049382716049382706,0,0,0.049382716049382706,45.38271604938271,0)" xlink:href="#bj"/><use transform="matrix(0.049382716049382706,0,0,0.049382716049382706,55.259259259259245,0)" xlink:href="#bk"/></g><path fill="#333" d="M30 0v-248h187v28H63v79h144v27H63v87h162V0H30" id="bl"/><path fill="#333" d="M24 0v-261h32V0H24" id="bm"/><path fill="#333" d="M59-47c-2 24 18 29 38 22v24C64 9 27 4 27-40v-127H5v-23h24l9-43h21v43h35v23H59v120" id="bn"/><path fill="#333" d="M24-231v-30h32v30H24zM24 0v-190h32V0H24" id="bo"/><path fill="#333" d="M96-169c-40 0-48 33-48 73s9 75 48 75c24 0 41-14 43-38l32 2c-6 37-31 61-74 61-59 0-76-41-82-99-10-93 101-131 147-64 4 7 5 14 7 22l-32 3c-4-21-16-35-41-35" id="bp"/><g id="V"><use transform="matrix(0.049382716049382706,0,0,0.049382716049382706,0,0)" xlink:href="#bl"/><use transform="matrix(0.049382716049382706,0,0,0.049382716049382706,11.85185185185185,0)" xlink:href="#bm"/><use transform="matrix(0.049382716049382706,0,0,0.049382716049382706,15.753086419753084,0)" xlink:href="#bh"/><use transform="matrix(0.049382716049382706,0,0,0.049382716049382706,25.629629629629626,0)" xlink:href="#bd"/><use transform="matrix(0.049382716049382706,0,0,0.049382716049382706,34.51851851851851,0)" xlink:href="#bn"/><use transform="matrix(0.049382716049382706,0,0,0.049382716049382706,39.456790123456784,0)" xlink:href="#bo"/><use transform="matrix(0.049382716049382706,0,0,0.049382716049382706,43.35802469135802,0)" xlink:href="#bp"/></g><path fill="#333" d="M212-179c-10-28-35-45-73-45-59 0-87 40-87 99 0 60 29 101 89 101 43 0 62-24 78-52l27 14C228-24 195 4 139 4 59 4 22-46 18-125c-6-104 99-153 187-111 19 9 31 26 39 46" id="bq"/><path fill="#333" d="M100-194c63 0 86 42 84 106H49c0 40 14 67 53 68 26 1 43-12 49-29l28 8c-11 28-37 45-77 45C44 4 14-33 15-96c1-61 26-98 85-98zm52 81c6-60-76-77-97-28-3 7-6 17-6 28h103" id="br"/><path fill="#333" d="M114-163C36-179 61-72 57 0H25l-1-190h30c1 12-1 29 2 39 6-27 23-49 58-41v29" id="bs"/><g id="W"><use transform="matrix(0.049382716049382706,0,0,0.049382716049382706,0,0)" xlink:href="#bq"/><use transform="matrix(0.049382716049382706,0,0,0.049382716049382706,12.790123456790122,0)" xlink:href="#bj"/><use transform="matrix(0.049382716049382706,0,0,0.049382716049382706,22.666666666666664,0)" xlink:href="#bk"/><use transform="matrix(0.049382716049382706,0,0,0.049382716049382706,32.5432098765432,0)" xlink:href="#bn"/><use transform="matrix(0.049382716049382706,0,0,0.049382716049382706,37.481481481481474,0)" xlink:href="#bh"/><use transform="matrix(0.049382716049382706,0,0,0.049382716049382706,47.35802469135801,0)" xlink:href="#bo"/><use transform="matrix(0.049382716049382706,0,0,0.049382716049382706,51.25925925925925,0)" xlink:href="#bk"/><use transform="matrix(0.049382716049382706,0,0,0.049382716049382706,61.13580246913578,0)" xlink:href="#br"/><use transform="matrix(0.049382716049382706,0,0,0.049382716049382706,71.01234567901233,0)" xlink:href="#bs"/></g><path fill="#333" d="M185-189c-5-48-123-54-124 2 14 75 158 14 163 119 3 78-121 87-175 55-17-10-28-26-33-46l33-7c5 56 141 63 141-1 0-78-155-14-162-118-5-82 145-84 179-34 5 7 8 16 11 25" id="bt"/><path fill="#333" d="M108 0H70L1-190h34L89-25l56-165h34" id="bu"/><g id="X"><use transform="matrix(0.049382716049382706,0,0,0.049382716049382706,0,0)" xlink:href="#bt"/><use transform="matrix(0.049382716049382706,0,0,0.049382716049382706,11.85185185185185,0)" xlink:href="#br"/><use transform="matrix(0.049382716049382706,0,0,0.049382716049382706,21.728395061728392,0)" xlink:href="#bs"/><use transform="matrix(0.049382716049382706,0,0,0.049382716049382706,27.604938271604933,0)" xlink:href="#bu"/><use transform="matrix(0.049382716049382706,0,0,0.049382716049382706,36.49382716049382,0)" xlink:href="#bo"/><use transform="matrix(0.049382716049382706,0,0,0.049382716049382706,40.395061728395056,0)" xlink:href="#bp"/><use transform="matrix(0.049382716049382706,0,0,0.049382716049382706,49.28395061728394,0)" xlink:href="#br"/></g></defs></g></svg>